HIERARCHY
ROOT Hips
{
	OFFSET	0.00	0.00	0.00
	CHANNELS 6 Xposition Yposition Zposition Zrotation Xrotation Yrotation
	JOINT Spine
	{
		OFFSET	 0.00	0.01	 0.00
		CHANNELS 3 Zrotation Xrotation Yrotation
		JOINT Spine1
		{
			OFFSET	 0.00	 2.45913012437421	 0.00
			CHANNELS 3 Zrotation Xrotation Yrotation
            JOINT Neck
            {
                OFFSET	 0.00	 2.48462964506057	 0.00
                CHANNELS 3 Zrotation Xrotation Yrotation
                JOINT Head
                {
                    OFFSET	 0.00	 0.927524780924562	 0.00
                    CHANNELS 3 Zrotation Xrotation Yrotation
                    End Site 
                    {
                        OFFSET	 0.00	 1.14999962169752	 0.00
                    }
                }
            }
			JOINT LeftShoulder
			{
				OFFSET	 0.00	 2.48462964506057	 0.00
				CHANNELS 3 Zrotation Xrotation Yrotation
				JOINT LeftUpArm
				{
					OFFSET	 0.00	 1.24881979654096	 0.00
					CHANNELS 3 Zrotation Xrotation Yrotation
					JOINT LeftForeArm
					{
						OFFSET	 0.00	2.59758046908119	 0.00
						CHANNELS 3 Zrotation Xrotation Yrotation
						JOINT LeftHand
						{
							OFFSET	 0.00	2.45542024364365	 0.00
							CHANNELS 3 Zrotation Xrotation Yrotation
							JOINT LeftHandThumb 
							{
								OFFSET	 0.00	0.00	 0.00
								CHANNELS 3 Zrotation Xrotation Yrotation
								End Site
								{
									OFFSET	 0.00	0.00	1.00000003353624
								}
							}
							JOINT L_Wrist_End 
							{
								OFFSET	 0.00	0.99999967115358	 0.00
								CHANNELS 3 Zrotation Xrotation Yrotation
								End Site 
								{
									OFFSET	 0.00	 0.00	 0.00
								}
							}
						}
					}
				}
			}
			JOINT RightShoulder
			{
				OFFSET	 0.00	 2.48462964506057	 0.00
				CHANNELS 3 Zrotation Xrotation Yrotation
				JOINT RightUpArm
				{
					OFFSET	 0.00	 1.24881979654096	 0.00
					CHANNELS 3 Zrotation Xrotation Yrotation
					JOINT RightForeArm
					{
						OFFSET	 0.00	2.59758046908119	 0.00
						CHANNELS 3 Zrotation Xrotation Yrotation
						JOINT RightHand
						{
							OFFSET	 0.00	2.45542024364365	 0.00
							CHANNELS 3 Zrotation Xrotation Yrotation
							JOINT RightHandThumb 
							{
								OFFSET	 0.00	0.00	 0.00
								CHANNELS 3 Zrotation Xrotation Yrotation
								End Site
								{
									OFFSET	 0.00	0.00	1.00000003353624
								}
							}
							JOINT R_Wrist_End 
							{
								OFFSET	 0.00	0.99999967115358	 0.00
								CHANNELS 3 Zrotation Xrotation Yrotation
								End Site 
								{
									OFFSET	 0.00	 0.00	 0.00
								}
							}
						}
					}
				}
			}
		}
	}
	JOINT LeftUpLeg
	{
		OFFSET	 1.2719394002717	 0.00	 0.00
		CHANNELS 3 Zrotation Xrotation Yrotation
		JOINT LeftLowLeg
		{
			OFFSET	 0.00	-4.3429100912261	 0.00
			CHANNELS 3 Zrotation Xrotation Yrotation
			JOINT LeftFoot
			{
				OFFSET	 0.00	-4.48767017425826	 0.00
				CHANNELS 3 Zrotation Xrotation Yrotation
				JOINT LeftToeBase
                {
                    OFFSET	 0.00	0.00	 1.51507020887566
                    CHANNELS 3 Zrotation Xrotation Yrotation
                    End Site 
                    {
                        OFFSET	 0.00	0.00	 0.75000010571191
                    }
                }
			}
		}
	}
	JOINT RightUpLeg
	{
		OFFSET	 -1.2719393604653	 0.00	 0.00
		CHANNELS 3 Zrotation Xrotation Yrotation
		JOINT RightLowLeg
		{
			OFFSET	 0.00	-4.3429100912261	 0.00
			CHANNELS 3 Zrotation Xrotation Yrotation
			JOINT RightFoot
			{
				OFFSET	 0.00	-4.48767017425826	 0.00
				CHANNELS 3 Zrotation Xrotation Yrotation
				JOINT RightToeBase
                {
                    OFFSET	 0.00	0.00	 1.51507020887566
                    CHANNELS 3 Zrotation Xrotation Yrotation
                    End Site 
                    {
                        OFFSET	 0.00	0.00	 0.749999965609858
                    }
                }   
			}
		}
	}
}
MOTION 
Frames:	16 
Frame Time: 0.02 
 3.3539300537109376 13.15489990234375 10.57199951171875 -102.587 85.0841 78.376 5.43351 -22.0326 -1.46646 -0.315129 29.9569 -1.92853 -11.1774 36.249 13.033 21.1008 -61.8681 23.0391 -120.8356 -0.277812 -7.98718 -36.0782 -5.66005 28.8882 0.0 25.0601 0.0 3.49467 -9.77211 -4.3298 0.0 0.0 0.0 0.0 0.0 0.0 119.6816 -0.271394 2.30642 37.5499 4.87215 -20.847 0.0 24.9485 0.0 1.88147 -0.211147 2.65197 0.0 0.0 0.0 0.0 0.0 0.0 5.47354 11.206 21.2478 0.0 -0.547676 0.0 -8.9592 6.9636297 9.17215 0.0 -9.28209 0.0 4.96065 6.91315 0.520613 0.0 7.00791 0.0 22.149 5.9651203 -28.9182 0.0 -9.9593 0.0 
  3.347659912109375 13.154200439453126 10.571300048828125 -103.708 85.053 79.3234 5.4509 -22.0753 -1.37153 -0.338756 30.0262 -1.81961 -11.2558 35.6556 13.1542 20.9307 -61.9946 22.6852 -120.8186 -1.86614 -6.13885 -36.685 -2.98579 28.922 0.0 23.264 0.0 2.01556 -10.1397 -6.24065 0.0 0.0 0.0 0.0 0.0 0.0 119.6221 -0.699054 2.29119 37.6454 5.39898 -21.2944 0.0 25.3091 0.0 1.85287 -0.361897 2.57589 0.0 0.0 0.0 0.0 0.0 0.0 5.50036 11.2378 21.3654 0.0 -0.670739 0.0 -9.01907 6.9717903 9.21693 0.0 -9.267469 0.0 5.01001 7.05496 0.643354 0.0 6.57791 0.0 22.1232 6.10213 -28.9189 0.0 -9.90365 0.0 
  3.3422100830078123 13.156199951171875 10.570999755859376 -104.673 85.0405 80.1151 5.56676 -22.0832 -1.14244 -0.624135 29.7312 -1.75778 -10.9737 36.0067 12.8211 21.237 -62.1663 23.3334 -120.767 -0.397372 -7.87352 -36.4473 -6.53614 28.7598 0.0 22.9591 0.0 0.242139 -10.5217 -6.3903 0.0 0.0 0.0 0.0 0.0 0.0 119.7143 -0.319237 2.20561 37.6449 4.85543 -21.3095 0.0 25.7396 0.0 1.82166 -0.327104 2.49043 0.0 0.0 0.0 0.0 0.0 0.0 5.51608 11.2424 21.4348 0.0 -0.751078 0.0 -9.0949 6.98102 9.30175 0.0 -9.26741 0.0 5.04052 7.13607 0.772023 0.0 6.25455 0.0 22.0926 6.2243204 -28.9128 0.0 -9.87685 0.0 
  3.3370700073242188 13.158199462890625 10.57050048828125 -105.583 85.0462 80.915 5.68577 -22.0863 -0.902917 -0.909403 29.8194 -1.67926 -10.7107 35.4254 12.6265 21.2865 -62.2143 23.1957 -120.5702 -1.88171 -6.11541 -37.041 -3.85967 28.8735 0.0 21.4055 0.0 -0.888678 -10.7375 -8.00881 0.0 0.0 0.0 0.0 0.0 0.0 119.8122 -0.743853 2.28595 37.7477 5.29361 -21.8023 0.0 25.9085 0.0 1.84628 -0.201469 2.60757 0.0 0.0 0.0 0.0 0.0 0.0 5.53741 11.1877 21.491 0.0 -0.739419 0.0 -9.13739 6.9616203 9.34057 0.0 -9.26086 0.0 5.05427 7.2097 0.75734 0.0 5.95522 0.0 22.0507 6.33661 -28.8374 0.0 -9.82141 0.0 
  3.333380126953125 13.161199951171875 10.570400390625 -106.029 85.0607 81.3256 5.87204 -22.0576 -0.599267 -1.36068 29.7383 -1.66602 -10.2508 35.3501 12.1811 21.5726 -62.288 23.6108 -120.3138 -1.85641 -6.03373 -37.229 -4.17814 28.6609 0.0 20.8077 0.0 -1.93919 -11.0997 -8.27855 0.0 0.0 0.0 0.0 0.0 0.0 120.0128 -0.767437 2.28917 37.7918 5.21955 -21.9969 0.0 26.0953 0.0 1.84029 -0.0579793 2.8519 0.0 0.0 0.0 0.0 0.0 0.0 5.56178 11.1097 21.5105 0.0 -0.657754 0.0 -9.15571 6.9379997 9.35736 0.0 -9.27939 0.0 5.05973 7.25757 0.713358 0.0 5.76753 0.0 22.0177 6.41479 -28.7784 0.0 -9.79015 0.0 
  3.33010009765625 13.165699462890625 10.570699462890625 -106.155 85.0803 81.4805 6.03498 -22.0227 -0.331173 -1.82429 29.7664 -1.67964 -9.74473 35.147 11.724 21.8514 -62.3053 23.9759 -120.0609 -1.85899 -6.02157 -37.3519 -4.36768 28.5178 0.0 20.4411 0.0 -2.52193 -11.714 -7.96438 0.0 0.0 0.0 0.0 0.0 0.0 120.2146 -0.768921 2.31581 37.8669 5.17995 -22.0408 0.0 26.2881 0.0 1.91223 -0.17609 2.82001 0.0 0.0 0.0 0.0 0.0 0.0 5.59746 11.0094 21.4915 0.0 -0.528324 0.0 -9.17799 6.90265 9.35595 0.0 -9.25717 0.0 5.07281 7.28995 0.715875 0.0 5.65427 0.0 21.9944 6.43843 -28.8138 0.0 -9.80254 0.0 
  3.327650146484375 13.170699462890624 10.571300048828125 -105.866 85.1002 81.256 6.17947 -21.9757 -0.0870352 -2.25879 29.848 -1.69182 -9.33005 34.9432 11.3953 22.1423 -62.2897 24.3095 -119.8217 -1.81304 -6.06283 -37.4209 -4.51807 28.3998 0.0 20.2842 0.0 -2.88968 -11.9241 -7.07617 0.0 0.0 0.0 0.0 0.0 0.0 120.4029 -0.75254 2.32891 37.9274 5.13584 -22.1201 0.0 26.3526 0.0 1.88224 -0.118808 2.96194 0.0 0.0 0.0 0.0 0.0 0.0 5.63526 10.9146 21.5169 0.0 -0.370757 0.0 -9.14249 6.88871 9.28119 0.0 -9.21777 0.0 5.08513 7.31335 0.679128 0.0 5.61999 0.0 21.9785 6.42628 -28.8485 0.0 -9.78168 0.0 
  3.325799865722656 13.175799560546874 10.57239990234375 -105.386 85.1195 80.8927 6.26085 -21.9509 0.0907723 -2.58382 29.8273 -1.68468 -8.91628 35.1664 10.964 22.4726 -62.3254 24.7687 -119.7177 -0.403596 -7.57507 -37.0299 -7.23773 28.4166 0.0 20.9513 0.0 -2.77438 -12.1499 -5.63993 0.0 0.0 0.0 0.0 0.0 0.0 120.501 -0.413971 2.34707 37.9832 4.62258 -21.9074 0.0 26.3418 0.0 1.96926 0.101926 2.87109 0.0 0.0 0.0 0.0 0.0 0.0 5.67477 10.8234 21.545 0.0 -0.216395 0.0 -9.10444 6.90127 9.18948 0.0 -9.284639 0.0 5.09797 7.34815 0.554601 0.0 5.58888 0.0 21.9348 6.46371 -28.8674 0.0 -9.78693 0.0 
  3.324859924316406 13.181400146484375 10.572900390625 -104.929 85.1422 80.5426 6.34618 -21.912 0.275192 -2.88464 29.9657 -1.65094 -8.43523 35.0252 10.4978 22.6656 -62.26 24.9476 -119.5981 -0.338634 -7.56772 -36.9659 -7.08589 28.4479 0.0 21.1146 0.0 -2.73844 -12.3817 -4.61149 0.0 0.0 0.0 0.0 0.0 0.0 120.5867 -0.438557 2.35895 38.0622 4.62043 -21.9241 0.0 26.2325 0.0 1.98243 0.0763622 3.01229 0.0 0.0 0.0 0.0 0.0 0.0 5.70116 10.7443 21.5587 0.0 -0.101906 0.0 -9.07873 6.90205 9.08349 0.0 -9.190781 0.0 5.10393 7.33912 0.497798 0.0 5.63405 0.0 21.9416 6.4214296 -28.9013 0.0 -9.7998905 0.0 
  3.3249200439453124 13.186700439453125 10.573800048828126 -104.47 85.163 80.2153 6.62126 -21.9201 0.657441 -3.4996 30.2075 -1.67269 -7.79174 34.8259 10.0159 23.1004 -62.095 25.4418 -119.265396 -0.240364 -7.64917 -36.9055 -6.898 28.6121 0.0 21.3548 0.0 -2.51637 -12.3184 -3.85692 0.0 0.0 0.0 0.0 0.0 0.0 120.871 -0.407204 2.37323 38.0965 4.58294 -21.9159 0.0 26.1379 0.0 1.98124 0.0312174 3.03128 0.0 0.0 0.0 0.0 0.0 0.0 5.72092 10.678 21.5011 0.0 -0.0218002 0.0 -9.00061 6.94611 9.0425 0.0 -9.253321 0.0 5.1035 7.32454 0.358257 0.0 5.68945 0.0 21.9463 6.4154797 -28.8813 0.0 -9.809999 0.0 
  3.3256100463867186 13.190799560546875 10.57449951171875 -103.88 85.1761 79.7915 6.85406 -21.9375 0.971537 -4.01364 30.4347 -1.69549 -7.19344 34.6524 9.55028 23.3963 -61.8708 25.8038 -119.0049 -0.124573 -7.6979 -36.8138 -6.59735 28.9581 0.0 21.6299 0.0 -2.06288 -12.3472 -3.43692 0.0 0.0 0.0 0.0 0.0 0.0 121.0813 -0.375855 2.37988 38.1511 4.52373 -21.8488 0.0 25.9693 0.0 2.05969 -0.154515 2.94454 0.0 0.0 0.0 0.0 0.0 0.0 5.73511 10.6477 21.4693 0.0 -0.00312453 0.0 -8.95598 6.9987 8.96225 0.0 -9.34528 0.0 5.10184 7.34786 0.193443 0.0 5.71002 0.0 21.9889 6.4135303 -28.8476 0.0 -9.81639 0.0 
  3.3274200439453123 13.1956005859375 10.575 -103.124 85.2045 79.2832 7.00439 -21.9135 1.17876 -4.43481 30.5823 -1.75075 -6.64323 34.606 9.10815 23.6774 -61.6406 26.1243 -118.799805 -0.0336893 -7.68402 -36.7143 -6.1656 29.2405 0.0 21.9149 0.0 -1.55569 -12.0556 -3.01211 0.0 0.0 0.0 0.0 0.0 0.0 121.2792 -0.328679 2.39588 38.1534 4.43075 -21.836 0.0 25.7004 0.0 2.17334 -0.120727 3.0247 0.0 0.0 0.0 0.0 0.0 0.0 5.74529 10.5854 21.2706 0.0 0.0507207 0.0 -8.90525 7.02314 8.94551 0.0 -9.14948 0.0 5.08567 7.39694 0.00935813 0.0 5.70762 0.0 22.0494 6.3758698 -28.8343 0.0 -9.80715 0.0 
  3.329320068359375 13.199100341796875 10.5752001953125 -102.469 85.2473 78.8842 7.09986 -21.8994 1.31009 -4.7661 30.8599 -1.78952 -6.27559 34.1574 8.89831 23.8329 -61.3382 26.0694 -118.604996 -1.20349 -6.22153 -36.9114 -3.15632 30.4392 0.0 21.6351 0.0 -0.0404126 -11.2069 -3.43935 0.0 0.0 0.0 0.0 0.0 0.0 121.4364 -0.613176 2.42143 38.1635 4.77272 -22.0784 0.0 25.3537 0.0 2.24815 -0.219334 3.12754 0.0 0.0 0.0 0.0 0.0 0.0 5.7332 10.5415 21.0801 0.0 0.0494275 0.0 -8.8559 7.07395 8.91616 0.0 -9.14661 0.0 5.05498 7.46522 -0.0436576 0.0 5.66683 0.0 22.1785 6.2887497 -28.9034 0.0 -9.853439 0.0 
  3.3324600219726563 13.204100341796876 10.575400390625 -101.597 85.3059 78.3504 7.00975 -21.8644 1.22389 -4.87361 30.9877 -1.85381 -6.11402 34.0678 8.84195 24.0861 -61.2178 26.1277 -118.5612 -1.1028 -6.28301 -36.7956 -2.65717 30.4276 0.0 22.1519 0.0 0.196646 -11.1386 -3.25614 0.0 0.0 0.0 0.0 0.0 0.0 121.5286 -0.59419 2.43579 38.0976 4.76152 -22.0722 0.0 24.9714 0.0 2.28618 -0.120229 3.04625 0.0 0.0 0.0 0.0 0.0 0.0 5.71938 10.4667 20.8652 0.0 0.0756048 0.0 -8.79154 7.13616 8.82526 0.0 -9.155001 0.0 5.01816 7.55297 -0.0547315 0.0 5.60807 0.0 22.3274 6.1376104 -29.0664 0.0 -9.85047 0.0 
  3.336470031738281 13.208299560546875 10.575899658203125 -100.836 85.3582 77.9487 6.85633 -21.8705 1.05466 -4.86854 31.0283 -1.92138 -5.92692 34.2318 8.6737 24.2095 -61.1097 26.2139 -118.5726 -0.0112946 -7.35863 -36.4362 -4.04286 30.3816 0.0 23.1912 0.0 0.699733 -11.0098 -2.55005 0.0 0.0 0.0 0.0 0.0 0.0 121.5156 -0.335332 2.45778 38.0506 4.38946 -21.8119 0.0 24.6774 0.0 2.43995 -0.229032 2.61262 0.0 0.0 0.0 0.0 0.0 0.0 5.7086 10.3822 20.6196 0.0 0.0977982 0.0 -8.7218 7.19382 8.74657 0.0 -9.13879 0.0 4.99506 7.66597 -0.0043495 0.0 5.48462 0.0 22.5568 5.89003 -29.3112 0.0 -9.673941 0.0 
  3.342690124511719 13.2118994140625 10.576600341796874 -100.062 85.3981 77.5952 6.64663 -21.8641 0.780601 -4.72402 31.1748 -1.99509 -5.79472 34.1346 8.50873 24.1874 -61.0306 26.029 -118.668396 0.208026 -7.40579 -36.2767 -3.5322 30.5089 0.0 23.8094 0.0 1.36148 -10.6003 -2.17022 0.0 0.0 0.0 0.0 0.0 0.0 121.433395 -0.31707 2.59096 38.0255 4.25214 -21.6524 0.0 24.3819 0.0 2.47047 -0.412618 2.48643 0.0 0.0 0.0 0.0 0.0 0.0 5.70729 10.2677 20.3683 0.0 0.146206 0.0 -8.60426 7.23601 8.6491 0.0 -9.31337 0.0 4.98217 7.79669 -0.113475 0.0 5.32508 0.0 22.5658 5.90067 -29.5789 0.0 -9.7749195 0.0 
